<svg xmlns="http://www.w3.org/2000/svg" viewBox="0 0 256 257" aria-hidden="true" role="img" class="iconify iconify--logos" width="31.88" height="32">
  <path fill="#000000" d="M96.44 17.501c-2.146 0-3.959 1.479-4.406 3.486l-7.195 39.951c-.107.594.09 1.197.507 1.627l8.112 9.058c.415.465 1.022.735 1.659.735h6.505c1.013 0 1.847-.803 1.85-1.816l.03-47.735c-.002-1.011-.837-1.816-1.85-1.816h-4.777Z"></path>
  <path fill="#000000" d="M132.094 17.501c-2.146 0-3.959 1.479-4.406 3.486l-7.195 39.951c-.107.594.09 1.197.507 1.627l8.112 9.058c.415.465 1.022.735 1.659.735h6.505c1.013 0 1.847-.803 1.85-1.816l.03-47.735c-.002-1.011-.837-1.816-1.85-1.816h-4.777Z"></path>
  <path fill="#000000" d="M167.961 29.37c-3.586 0-6.499 2.913-6.499 6.499v135.566c0 3.586 2.913 6.499 6.499 6.499h17.078c3.586 0 6.499-2.913 6.499-6.499V35.869c0-3.586-2.913-6.499-6.499-6.499H167.96Z"></path>
  <path fill="#000000" d="M199.872 60.388c-3.586 0-6.499 2.913-6.499 6.499v104.548c0 3.586 2.913 6.499 6.499 6.499h17.079c3.586 0 6.499-2.913 6.499-6.499V66.887c0-3.586-2.913-6.499-6.499-6.499h-17.079Z"></path>
  <path fill="#000000" d="M231.766 89.768c-3.586 0-6.499 2.913-6.499 6.499v75.167c0 3.586 2.913 6.499 6.499 6.499h17.078c3.586 0 6.499-2.913 6.499-6.499v-75.167c0-3.586-2.913-6.499-6.499-6.499h-17.078Z"></path>
</svg>
